<svg xmlns="http://www.w3.org/2000/svg" width="16" height="16" viewBox="0 0 4.233 4.233">
    <style>
    path {
        fill: rgba(24, 25, 26, 0.7);
    }
    </style>
    <path d="M.793 1.852a.265.265 0 00-.264.265.265.265 0 00.264.264h2.646a.265.265 0 00.266-.264.265.265 0 00-.266-.265zm.529-.793a.265.265 0 00-.263.263.265.265 0 00.263.266H2.91a.265.265 0 00.266-.266.265.265 0 00-.266-.263z"/>
    <path d="M.794 2.646A.792.792 0 000 3.44v.264a.265.265 0 00.265.265.265.265 0 00.264-.265V3.44c0-.147.118-.265.265-.265H3.44c.146 0 .264.118.264.265v.264a.265.265 0 00.265.265.265.265 0 00.264-.265V3.44a.792.792 0 00-.793-.794H1.852z"/>
    <path d="M1.852.264a.265.265 0 00-.264.265.265.265 0 00.264.264h.529a.265.265 0 00.265-.264.265.265 0 00-.265-.265z"/>
</svg>
